# xmcd CD database file
#
# Track frame offsets:
#	150
#	15482
#	32017
#
# Disc length: 701 seconds
#
# Revision: 1
# Processed by: cddbd v1.5.1PL2 Copyright (c) Steve Scherf et al.
# Submitted via: CDex 1.51
#
DISCID=1602bb03
DTITLE=BIRELI LAGRENE - Made in France
DYEAR=1992
DGENRE=Jazz
TTITLE0=Made in France
TTITLE1=Rythm Things
TTITLE2=Timothee
EXTD=YEAR: 1992
EXTT0=
EXTT1=
EXTT2=
PLAYORDER=
